
<svg xmlns="http://www.w3.org/2000/svg"  version="1.1" width="150" height="100" viewBox="0 0 500 500" xml:space="preserve">



<g transform="matrix(4.158415841584157 0 0 4.158415841584157 249.99999999999997 250)"  >
<g style=""   >
		<g transform="matrix(1 0 0 1 3.9678714323693924 8.021068523454424)"  >
<linearGradient id="SVGID_8210" gradientUnits="userSpaceOnUse" gradientTransform="matrix(1 0 0 1 0 0)"  x1="12.8" y1="22.02" x2="69.24" y2="54.61">
<stop offset="0%" style="stop-color:rgb(100,255,221);stop-opacity: 0.5"/>
<stop offset="2%" style="stop-color:rgb(105,252,220);stop-opacity: 0.52"/>
<stop offset="15%" style="stop-color:rgb(144,228,216);stop-opacity: 0.64"/>
<stop offset="28.999999999999996%" style="stop-color:rgb(177,208,212);stop-opacity: 0.75"/>
<stop offset="43%" style="stop-color:rgb(203,191,209);stop-opacity: 0.84"/>
<stop offset="56.99999999999999%" style="stop-color:rgb(224,178,207);stop-opacity: 0.91"/>
<stop offset="71%" style="stop-color:rgb(239,169,205);stop-opacity: 0.96"/>
<stop offset="86%" style="stop-color:rgb(248,164,204);stop-opacity: 0.99"/>
<stop offset="100%" style="stop-color:rgb(251,162,204);stop-opacity: 1"/>
</linearGradient>
<path style="stroke: none; stroke-width: 1; stroke-dasharray: none; stroke-linecap: butt; stroke-dashoffset: 0; stroke-linejoin: miter; stroke-miterlimit: 4; fill: url(#SVGID_8210); fill-rule: nonzero; opacity: 1;"  transform=" translate(-43.817871432369394, -38.871068523454426)" d="M 77.2 38.3 c 0.4 7.4 -10.9 13.6 -15.6 16.2 s -12.5 6.7 -23.5 5.1 c -2.4 -0.3 -14.6 -2.1 -21.9 -12.9 c -4.1 -6 -8.6 -17.6 -3.5 -24.3 S 30 17.7 41.2 19.7 C 44.8 20.3 76.6 26.1 77.2 38.3 Z" stroke-linecap="round" />
</g>
		<g transform="matrix(1 0 0 1 -3.086879331061823 -2.589914145613161)"  >
<linearGradient id="SVGID_8211" gradientUnits="userSpaceOnUse" gradientTransform="matrix(1 0 0 1 0 0)"  x1="23.62" y1="3.97" x2="48.56" y2="47.18">
<stop offset="0%" style="stop-color:rgb(251,162,204);stop-opacity: 1"/>
<stop offset="100%" style="stop-color:rgb(100,255,221);stop-opacity: 1"/>
</linearGradient>
<path style="stroke: none; stroke-width: 1; stroke-dasharray: none; stroke-linecap: butt; stroke-dashoffset: 0; stroke-linejoin: miter; stroke-miterlimit: 4; fill: url(#SVGID_8211); fill-rule: nonzero; opacity: 0.79;"  transform=" translate(-36.76312066893818, -28.26008585438684)" d="M 71 22.8 c -1.1 5 -12.7 3.5 -17.7 12.5 c -1.7 3.1 -0.7 4 -2.7 7.5 C 47.1 48.9 40.7 52 37.3 53 C 23.5 56.9 1.3 42.4 2.5 26.3 C 3.4 13.8 18.1 5.9 27.9 3.7 C 39.3 1.1 48.6 5.3 53.7 7.6 C 60.5 10.6 72.1 17.6 71 22.8 Z" stroke-linecap="round" />
</g>
</g>
</g>
<g transform="matrix(1 0 0 1 248.61314804102688 251.6530032786884)" style=""  ><path fill="#000000" opacity="1" d="M-75.98-28.23C-75.98-29.56-74.64-30.90-70.62-30.90C-67.28-30.90-65.90-29.56-65.50-28.89C-64.87-27.78-64.16-27.11-62.82-27.11L-57.24-27.11C-56.13-27.11-55.46-27.78-55.46-28.89C-55.46-33.35-60.37-38.26-70.62-38.26C-81.55-38.26-86.23-33.58-86.23-28.23C-86.23-15.74-64.60-19.97-64.60-15.51C-64.60-14.18-66.16-12.62-70.62-12.62C-75.08-12.62-76.42-13.95-77.09-15.07C-77.72-16.14-78.43-16.85-79.77-16.85L-85.34-16.85C-86.46-16.85-87.13-16.18-87.13-15.07C-87.13-10.16-82.22-5.26-70.62-5.26C-59.25-5.26-54.35-10.16-54.35-15.51C-54.35-28.00-75.98-23.77-75.98-28.23Z"/><path fill="#000000" opacity="1" d="M-42.62-35.81C-42.97-36.70-43.73-37.37-44.62-37.37L-51.76-37.37C-52.65-37.37-53.27-36.70-52.87-35.81L-40.83-7.71C-40.43-6.82-39.72-6.15-38.82-6.15L-29.68-6.19C-28.79-6.19-28.08-6.82-27.67-7.71L-15.63-35.81C-15.23-36.70-15.86-37.37-16.75-37.37L-24.33-37.37C-25.22-37.37-25.98-36.70-26.34-35.81L-34.14-15.51L-34.59-15.51Z"/><path fill="#000000" opacity="1" d="M18.17-35.81C18.17-36.70 17.51-37.37 16.61-37.37L-10.59-37.37C-11.48-37.37-12.15-36.70-12.15-35.81L-12.15-7.71C-12.15-6.82-11.48-6.15-10.59-6.15L16.61-6.15C17.51-6.15 18.17-6.82 18.17-7.71L18.17-12.17C18.17-13.06 17.51-13.73 16.61-13.73L-2.34-13.73L-2.34-18.19L11.71-18.19C12.60-18.19 13.27-18.86 13.27-19.75L13.27-24.21C13.27-25.10 12.60-25.77 11.71-25.77L-2.34-25.77L-2.34-29.79L16.61-29.79C17.51-29.79 18.17-30.46 18.17-31.35Z"/><path fill="#000000" opacity="1" d="M52.07-35.81C52.07-36.70 51.40-37.37 50.51-37.37L21.97-37.37C21.07-37.37 20.40-36.70 20.40-35.81L20.40-31.35C20.40-30.46 21.07-29.79 21.97-29.79L31.33-29.79L31.33-7.71C31.33-6.82 32.00-6.15 32.89-6.15L39.58-6.15C40.47-6.15 41.14-6.82 41.14-7.71L41.14-29.79L50.51-29.79C51.40-29.79 52.07-30.46 52.07-31.35Z"/><path fill="#000000" opacity="1" d="M77.63-7.71C77.98-6.82 78.74-6.15 79.63-6.15L87.22-6.15C88.11-6.15 88.73-6.82 88.33-7.71L75.84-35.85C75.44-36.74 74.73-37.37 73.84-37.37L64.69-37.37C63.80-37.37 63.09-36.70 62.69-35.81L50.20-7.71C49.80-6.82 50.42-6.15 51.31-6.15L58.45-6.15C59.34-6.15 60.10-6.82 60.46-7.71L62.02-11.72L76.07-11.72ZM68.93-28.00L69.38-28.00L72.94-19.08L65.14-19.08Z"/><path fill="#000000" opacity="1" d="M-75.57 11.65C-75.57 6.96-79.59 2.95-88.73 2.95L-104.79 2.95C-105.68 2.95-106.35 3.62-106.35 4.51L-106.35 32.61C-106.35 33.50-105.68 34.17-104.79 34.17L-86.95 34.17C-77.58 34.17-73.34 29.93-73.34 25.03C-73.34 19.23-80.03 17.89-80.03 17.89L-80.03 17.44C-80.03 17.44-75.57 16.11-75.57 11.65ZM-86.95 21.68C-84.72 21.68-83.60 22.80-83.60 24.36C-83.60 25.92-84.72 27.03-86.95 27.03L-96.54 27.03L-96.54 21.68ZM-88.73 10.09C-86.68 10.09-85.83 10.98-85.83 12.32C-85.83 13.65-86.72 14.55-88.73 14.55L-96.54 14.55L-96.54 10.09Z"/><path fill="#000000" opacity="1" d="M-38.11 4.51C-38.11 3.62-38.78 2.95-39.67 2.95L-66.88 2.95C-67.77 2.95-68.44 3.62-68.44 4.51L-68.44 32.61C-68.44 33.50-67.77 34.17-66.88 34.17L-39.67 34.17C-38.78 34.17-38.11 33.50-38.11 32.61L-38.11 28.15C-38.11 27.26-38.78 26.59-39.67 26.59L-58.63 26.59L-58.63 22.13L-44.58 22.13C-43.69 22.13-43.02 21.46-43.02 20.57L-43.02 16.11C-43.02 15.21-43.69 14.55-44.58 14.55L-58.63 14.55L-58.63 10.53L-39.67 10.53C-38.78 10.53-38.11 9.86-38.11 8.97Z"/><path fill="#000000" opacity="1" d="M-8.99 32.61C-8.63 33.50-7.87 34.17-6.98 34.17L0.60 34.17C1.49 34.17 2.12 33.50 1.72 32.61L-10.77 4.47C-11.17 3.57-11.89 2.95-12.78 2.95L-21.92 2.95C-22.81 2.95-23.53 3.62-23.93 4.51L-36.42 32.61C-36.82 33.50-36.19 34.17-35.30 34.17L-28.16 34.17C-27.27 34.17-26.51 33.50-26.16 32.61L-24.60 28.59L-10.55 28.59ZM-17.68 12.32L-17.24 12.32L-13.67 21.24L-21.47 21.24Z"/><path fill="#000000" opacity="1" d="M21.47 35.06C32.40 35.06 37.98 29.71 37.98 21.19L37.98 4.51C37.98 3.62 37.31 2.95 36.42 2.95L29.73 2.95C28.83 2.95 28.16 3.62 28.16 4.51L28.16 21.24C28.16 25.25 25.71 27.70 21.47 27.70C17.24 27.70 14.78 25.25 14.78 21.24L14.78 4.51C14.78 3.62 14.12 2.95 13.22 2.95L6.53 2.95C5.64 2.95 4.97 3.62 4.97 4.51L4.97 21.24C4.97 29.71 10.32 35.06 21.47 35.06Z"/><path fill="#000000" opacity="1" d="M73.43 4.51C73.43 3.62 72.76 2.95 71.87 2.95L43.33 2.95C42.44 2.95 41.77 3.62 41.77 4.51L41.77 8.97C41.77 9.86 42.44 10.53 43.33 10.53L52.69 10.53L52.69 32.61C52.69 33.50 53.36 34.17 54.26 34.17L60.95 34.17C61.84 34.17 62.51 33.50 62.51 32.61L62.51 10.53L71.87 10.53C72.76 10.53 73.43 9.86 73.43 8.97Z"/><path fill="#000000" opacity="1" d="M109.52 4.51C109.96 3.84 109.52 2.95 108.40 2.95L101.49 2.95C100.15 2.95 99.21 3.84 98.81 4.51L92.12 15.44L91.68 15.44L84.99 4.51C84.58 3.84 83.65 2.95 82.31 2.95L75.40 2.95C74.28 2.95 73.84 3.84 74.28 4.51L86.99 24.36L86.99 32.61C86.99 33.50 87.66 34.17 88.55 34.17L95.24 34.17C96.14 34.17 96.80 33.50 96.80 32.61L96.80 24.36Z"/></g></svg>